<svg xmlns="http://www.w3.org/2000/svg" width="50" height="50" viewBox="0 0 50 50"><g transform="translate(-137 -11)"><rect width="50" height="50" rx="25" transform="translate(137 11)" fill="#e5efff"/><g transform="translate(-413.235 -118.788)"><g transform="translate(562.35 140.138)"><path d="M16.672,29.441h-2.22l-.785-.324-.233-.1-.235.092-.833.328H9.62c-.986,0-2.5-1.116-3.848-2.844a9.368,9.368,0,0,1-2.208-4.7v-.02l-.135-4.136L3.4,17.008l-.721.142a1.909,1.909,0,0,1-.365.038c-1.347,0-1.785-1.91-1.927-3.048a3.7,3.7,0,0,1,.388-2.8,1.318,1.318,0,0,1,1.051-.4,3.419,3.419,0,0,1,.619.063l.764.142-.025-.777L3.006,4.816A4.205,4.205,0,0,1,7.207.625H19.085a4.2,4.2,0,0,1,4.2,4.191L23.1,10.391l-.026.793.777-.16a3.547,3.547,0,0,1,.708-.08,1.318,1.318,0,0,1,1.051.4,3.7,3.7,0,0,1,.388,2.8c-.142,1.138-.582,3.049-1.927,3.049a1.981,1.981,0,0,1-.445-.055l-.741-.172-.025.76-.136,4.158v.02a9.368,9.368,0,0,1-2.208,4.7C19.168,28.325,17.658,29.441,16.672,29.441Z" fill="#fff"/><path d="M16.672,28.816c.634,0,1.955-.815,3.355-2.6A8.911,8.911,0,0,0,22.1,21.9v-.041L22.24,17.7l.05-1.521,1.482.344a1.359,1.359,0,0,0,.3.039c.155,0,.478,0,.826-.7a5.793,5.793,0,0,0,.481-1.8c.2-1.615-.1-2.153-.236-2.309-.045-.05-.163-.184-.583-.184a2.927,2.927,0,0,0-.582.067l-1.554.321.052-1.586.182-5.564A3.58,3.58,0,0,0,19.085,1.25H7.207A3.58,3.58,0,0,0,3.631,4.807l.181,5.544.051,1.554-1.529-.285a2.8,2.8,0,0,0-.505-.052c-.42,0-.538.134-.582.184-.138.156-.437.694-.236,2.309a5.779,5.779,0,0,0,.481,1.8c.345.7.667.7.824.7h0a1.285,1.285,0,0,0,.245-.026L4,16.253l.048,1.469.135,4.136V21.9a8.91,8.91,0,0,0,2.075,4.313c1.4,1.789,2.721,2.6,3.356,2.6h2.628l.722-.285.469-.185.466.193.671.277h2.1m0,1.25H14.329l-.9-.372-.943.372H9.62c-2.666,0-6.682-5.5-6.682-8.167L2.8,17.763a2.523,2.523,0,0,1-.486.049c-1.927,0-2.414-2.521-2.547-3.6-.137-1.1-.373-3.9,2.059-3.9a4.02,4.02,0,0,1,.734.073L2.381,4.826A4.826,4.826,0,0,1,7.207,0H19.085A4.825,4.825,0,0,1,23.91,4.826l-.182,5.586a4.145,4.145,0,0,1,.834-.093c2.432,0,2.2,2.8,2.06,3.9-.135,1.075-.621,3.6-2.547,3.6a2.591,2.591,0,0,1-.586-.071L23.353,21.9C23.353,24.566,19.337,30.066,16.672,30.066Z" fill="#212121"/></g><path d="M20.406,7.017A10.132,10.132,0,0,0,19.385,4.9a37.7,37.7,0,0,0-7.966.718c-1.738.479-5.671.224-8.826-.1-.3-.031-1,.888-1.676,1.807C.63,7.713.347,8.1.1,8.415L0,4.825A4.825,4.825,0,0,1,4.825,0H16.7a4.825,4.825,0,0,1,4.823,4.662l-.079.25s.028.153.069.4l-.1,3.8a12.494,12.494,0,0,1-1.007-2.1Z" transform="translate(564.731 140.138)" fill="#212121"/><path d="M6.641,2.156S1.411-2.286,0,1.582" transform="translate(567.308 148.475) rotate(-11)" fill="none" stroke="#212121" stroke-linecap="round" stroke-width="1.25"/><path d="M0,.783A19.04,19.04,0,0,1,6.7-.887" transform="translate(577.004 148.564) rotate(14)" fill="none" stroke="#212121" stroke-linecap="round" stroke-width="1.25"/><path d="M640.886,257.633a5.634,5.634,0,0,0,3.188,1.357,4.416,4.416,0,0,0,2.9-1.357" transform="translate(-68.692 -98.818)" fill="none" stroke="#212121" stroke-linecap="round" stroke-width="1.25"/><path d="M599.731,148.533s-.755-3.669,3.388-5.04c.181-.655-1.721-1.643-1.721-1.643h5.93c1.142,0,.549-1.318.549-1.318a66.428,66.428,0,0,1,7.138,1.318c4.762,1.785,5.427,4.093,5.461,6.452-3.834.065-9.056-2.985-9.056-2.985Z" transform="translate(-34.599 -3.45)" fill="#212121" stroke="#212121" stroke-linecap="round" stroke-linejoin="round" stroke-width="1.25"/><path d="M0,1.637C.34,1.236.088.688.529.389c1.276-.455,4.435-.743,4.9.5" transform="translate(577.612 151.112) rotate(9)" fill="none" stroke="#212121" stroke-linecap="round" stroke-width="1.25"/><path d="M5.428,1.637C5.088,1.237,5.34.688,4.9.388,3.623-.066.463-.354,0,.893" transform="translate(568.137 151.408) rotate(-9)" fill="none" stroke="#212121" stroke-linecap="round" stroke-width="1.25"/><path d="M.638,2.354A1.3,1.3,0,0,1,.889,0a5.2,5.2,0,0,1,.983.067A1.3,1.3,0,0,1,1.73,2.461,8.937,8.937,0,0,1,.638,2.354Z" transform="translate(569.548 151.184) rotate(-9)" fill="#212121"/><path d="M1.96,1.8A1.3,1.3,0,0,0,2.46.1,5.092,5.092,0,0,0,.089.2a1.3,1.3,0,0,0,.78,1.7A8.937,8.937,0,0,0,1.96,1.8Z" transform="translate(579.024 151.336) rotate(9)" fill="#212121"/><path d="M10.153,27.022a9.427,9.427,0,0,1-5.868-2.041A13.931,13.931,0,0,1,1.425,21.9C.461,20.519.313,12.621.311,12.542L0,.109l.832.931.65,15.4a8.092,8.092,0,0,1,3.574-1.56,3.991,3.991,0,0,1,.449-.025,9.333,9.333,0,0,1,2.318.408h0a9.266,9.266,0,0,0,2.32.41h0a8.381,8.381,0,0,0,2.176-.4A9.028,9.028,0,0,1,14.7,14.85a4.524,4.524,0,0,1,.487.026,24.653,24.653,0,0,1,4.159,1.56L19.936,0l.771.109L20.261,16.44c0,.041-.267,4.124-1.113,5.456A12.052,12.052,0,0,1,16.2,24.964a10.071,10.071,0,0,1-6.047,2.058ZM5.964,17.765a8.99,8.99,0,0,0-2.274.122c.032.026,3.447,2.783,6.628,2.783s6.272-2.755,6.3-2.783h0a.005.005,0,0,0,0,0c-.015-.027-.2-.116-2.014-.116a7.219,7.219,0,0,0-2.107.279,7.451,7.451,0,0,1-2.181.285,8.029,8.029,0,0,1-2.247-.288A7.491,7.491,0,0,0,5.964,17.765Z" transform="translate(565.15 145.572)" fill="#212121" stroke="#212121" stroke-linecap="round" stroke-linejoin="round" stroke-width="1.25"/><path d="M826.161-279.9v-6.3" transform="translate(-249.21 437.053)" fill="none" stroke="#212121" stroke-linecap="round" stroke-width="1.25"/></g></g></svg>